<svg xmlns="http://www.w3.org/2000/svg" viewBox="0 0 841.9 595.3">
      <symbol id="icon-exit" viewBox="0 0 14 14" fill="none">
            <path d="M9.03052 1H11.7073C12.0623 1 12.4027 1.14101 12.6537 1.39201C12.9047 1.64301 13.0457 1.98344 13.0457 2.33841V11.7072C13.0457 12.0622 12.9047 12.4026 12.6537 12.6536C12.4027 12.9046 12.0623 13.0457 11.7073 13.0457H9.03052" stroke="#91A4B7" stroke-width="1.5" stroke-linecap="round" stroke-linejoin="round"/>
            <path d="M5.68433 10.3688L9.03034 7.02283L5.68433 3.67682" stroke="#91A4B7" stroke-width="1.5" stroke-linecap="round" stroke-linejoin="round"/>
            <path d="M9.03044 7.02283H1" stroke="#91A4B7" stroke-width="1.5" stroke-linecap="round" stroke-linejoin="round"/>
      </symbol>
      <symbol id="icon-peoples" viewBox="0 0 29 20">
            <path d="M4.74932 8.57143C6.29369 8.57143 7.54932 7.29018 7.54932 5.71429C7.54932 4.13839 6.29369 2.85714 4.74932 2.85714C3.20494 2.85714 1.94932 4.13839 1.94932 5.71429C1.94932 7.29018 3.20494 8.57143 4.74932 8.57143ZM24.3493 8.57143C25.8937 8.57143 27.1493 7.29018 27.1493 5.71429C27.1493 4.13839 25.8937 2.85714 24.3493 2.85714C22.8049 2.85714 21.5493 4.13839 21.5493 5.71429C21.5493 7.29018 22.8049 8.57143 24.3493 8.57143ZM25.7493 10H22.9493C22.1793 10 21.4837 10.317 20.9762 10.8304C22.7393 11.817 23.9906 13.5982 24.2618 15.7143H27.1493C27.9237 15.7143 28.5493 15.0759 28.5493 14.2857V12.8571C28.5493 11.2813 27.2937 10 25.7493 10ZM14.5493 10C17.2574 10 19.4493 7.76339 19.4493 5C19.4493 2.23661 17.2574 0 14.5493 0C11.8412 0 9.64932 2.23661 9.64932 5C9.64932 7.76339 11.8412 10 14.5493 10ZM17.9093 11.4286H17.5462C16.6362 11.875 15.6256 12.1429 14.5493 12.1429C13.4731 12.1429 12.4668 11.875 11.5524 11.4286H11.1893C8.40682 11.4286 6.14932 13.7321 6.14932 16.5714V17.8571C6.14932 19.0402 7.08994 20 8.24932 20H20.8493C22.0087 20 22.9493 19.0402 22.9493 17.8571V16.5714C22.9493 13.7321 20.6918 11.4286 17.9093 11.4286ZM8.12244 10.8304C7.61494 10.317 6.91932 10 6.14932 10H3.34932C1.80494 10 0.549316 11.2813 0.549316 12.8571V14.2857C0.549316 15.0759 1.17494 15.7143 1.94932 15.7143H4.83244C5.10807 13.5982 6.35932 11.817 8.12244 10.8304Z" fill="#91A4B7"/>
      </symbol>
      <symbol id="icon-call" viewBox="0 0 12 14" >
            <path d="M11.7477 9.66594C11.6959 9.60344 11.645 9.54094 11.595 9.48063C10.9081 8.64906 10.4925 8.14719 10.4925 5.79313C10.4925 4.57438 10.2012 3.57437 9.62702 2.82437C9.20363 2.27031 8.63129 1.85 7.87693 1.53938C7.86722 1.53397 7.85855 1.52688 7.85133 1.51844C7.57999 0.609062 6.8375 0 6.00008 0C5.16266 0 4.42047 0.609062 4.14914 1.5175C4.1419 1.52563 4.13335 1.5325 4.12385 1.53781C2.36346 2.26312 1.50793 3.65469 1.50793 5.79219C1.50793 8.14719 1.09297 8.64906 0.405422 9.47969C0.355464 9.54 0.304569 9.60125 0.252738 9.665C0.118851 9.8266 0.0340228 10.0232 0.0082921 10.2316C-0.0174386 10.4399 0.0170054 10.6513 0.107548 10.8406C0.300198 11.2469 0.710789 11.4991 1.17946 11.4991H10.8241C11.2906 11.4991 11.6984 11.2472 11.8917 10.8428C11.9826 10.6534 12.0174 10.4419 11.9919 10.2333C11.9664 10.0247 11.8816 9.8278 11.7477 9.66594V9.66594ZM6.00008 14C6.45127 13.9996 6.89395 13.8771 7.28117 13.6453C7.66839 13.4135 7.98571 13.0811 8.19947 12.6834C8.20954 12.6644 8.21452 12.643 8.21391 12.6215C8.21331 12.5999 8.20714 12.5789 8.19602 12.5604C8.18489 12.542 8.16919 12.5267 8.15042 12.5161C8.13166 12.5055 8.11048 12.5 8.08894 12.5H3.91184C3.89027 12.4999 3.86905 12.5054 3.85025 12.516C3.83144 12.5266 3.81569 12.5418 3.80453 12.5603C3.79337 12.5788 3.78718 12.5998 3.78656 12.6214C3.78594 12.643 3.79091 12.6644 3.801 12.6834C4.01473 13.0811 4.332 13.4134 4.71916 13.6452C5.10632 13.877 5.54894 13.9996 6.00008 14Z" fill="#33C773"/>
      </symbol>
      <symbol id="icon-idea" viewBox="0 0 19 25" fill="none" >
           <path d="M9 14.25C11.8406 14.25 14.1429 12.0117 14.1429 9.25C14.1429 6.48828 11.8406 4.25 9 4.25C6.15938 4.25 3.85714 6.48828 3.85714 9.25C3.85714 12.0117 6.15938 14.25 9 14.25ZM12.6 15.5H11.929C11.0371 15.8984 10.0446 16.125 9 16.125C7.95536 16.125 6.96696 15.8984 6.07098 15.5H5.4C2.41875 15.5 0 17.8516 0 20.75V22.375C0 23.4102 0.863839 24.25 1.92857 24.25H16.0714C17.1362 24.25 18 23.4102 18 22.375V20.75C18 17.8516 15.5813 15.5 12.6 15.5Z" fill="#91A4B7"/>
            <mask id="path-2-outside-1_58_31" maskUnits="userSpaceOnUse" x="9" y="0.75" width="10" height="12" fill="black">
            <rect fill="white" x="9" y="0.75" width="10" height="12"/>
            <path d="M10 5.50007C9.99998 4.88084 10.1635 4.27124 10.4761 3.7257C10.7886 3.18016 11.2403 2.71567 11.791 2.3737C12.3417 2.03172 12.9741 1.82292 13.6318 1.76592C14.2895 1.70892 14.9521 1.80551 15.5603 2.04705C16.1685 2.2886 16.7034 2.66759 17.1173 3.15017C17.5312 3.63276 17.8112 4.20393 17.9322 4.81267C18.0533 5.42142 18.0117 6.0488 17.8111 6.63879C17.6105 7.22877 17.2572 7.76301 16.7827 8.19379C16.6473 8.31629 16.5433 8.44379 16.4807 8.58066L15.9727 9.68627C15.9469 9.74231 15.9042 9.79004 15.8498 9.82358C15.7954 9.85712 15.7318 9.87501 15.6667 9.87502H12.3333C12.2681 9.87513 12.2043 9.8573 12.1498 9.82376C12.0953 9.79021 12.0525 9.74241 12.0267 9.68627L11.5193 8.58004C11.4467 8.43395 11.3441 8.3027 11.2173 8.19379C10.8318 7.84453 10.5252 7.42598 10.3161 6.96315C10.1069 6.50033 9.99941 6.00272 10 5.50007V5.50007ZM12 10.8125C12 10.7296 12.0351 10.6501 12.0976 10.5915C12.1601 10.5329 12.2449 10.5 12.3333 10.5H15.6667C15.7551 10.5 15.8399 10.5329 15.9024 10.5915C15.9649 10.6501 16 10.7296 16 10.8125C16 10.8954 15.9649 10.9749 15.9024 11.0335C15.8399 11.0921 15.7551 11.125 15.6667 11.125L15.5173 11.4044C15.462 11.5082 15.3769 11.5955 15.2717 11.6565C15.1664 11.7176 15.0451 11.7499 14.9213 11.75H13.0787C12.9549 11.7499 12.8336 11.7176 12.7283 11.6565C12.6231 11.5955 12.538 11.5082 12.4827 11.4044L12.3333 11.125C12.2449 11.125 12.1601 11.0921 12.0976 11.0335C12.0351 10.9749 12 10.8954 12 10.8125Z"/>
            </mask>
            <path d="M10 5.50007C9.99998 4.88084 10.1635 4.27124 10.4761 3.7257C10.7886 3.18016 11.2403 2.71567 11.791 2.3737C12.3417 2.03172 12.9741 1.82292 13.6318 1.76592C14.2895 1.70892 14.9521 1.80551 15.5603 2.04705C16.1685 2.2886 16.7034 2.66759 17.1173 3.15017C17.5312 3.63276 17.8112 4.20393 17.9322 4.81267C18.0533 5.42142 18.0117 6.0488 17.8111 6.63879C17.6105 7.22877 17.2572 7.76301 16.7827 8.19379C16.6473 8.31629 16.5433 8.44379 16.4807 8.58066L15.9727 9.68627C15.9469 9.74231 15.9042 9.79004 15.8498 9.82358C15.7954 9.85712 15.7318 9.87501 15.6667 9.87502H12.3333C12.2681 9.87513 12.2043 9.8573 12.1498 9.82376C12.0953 9.79021 12.0525 9.74241 12.0267 9.68627L11.5193 8.58004C11.4467 8.43395 11.3441 8.3027 11.2173 8.19379C10.8318 7.84453 10.5252 7.42598 10.3161 6.96315C10.1069 6.50033 9.99941 6.00272 10 5.50007V5.50007ZM12 10.8125C12 10.7296 12.0351 10.6501 12.0976 10.5915C12.1601 10.5329 12.2449 10.5 12.3333 10.5H15.6667C15.7551 10.5 15.8399 10.5329 15.9024 10.5915C15.9649 10.6501 16 10.7296 16 10.8125C16 10.8954 15.9649 10.9749 15.9024 11.0335C15.8399 11.0921 15.7551 11.125 15.6667 11.125L15.5173 11.4044C15.462 11.5082 15.3769 11.5955 15.2717 11.6565C15.1664 11.7176 15.0451 11.7499 14.9213 11.75H13.0787C12.9549 11.7499 12.8336 11.7176 12.7283 11.6565C12.6231 11.5955 12.538 11.5082 12.4827 11.4044L12.3333 11.125C12.2449 11.125 12.1601 11.0921 12.0976 11.0335C12.0351 10.9749 12 10.8954 12 10.8125Z" fill="#91A4B7"/>
            <path d="M10 5.50007C9.99998 4.88084 10.1635 4.27124 10.4761 3.7257C10.7886 3.18016 11.2403 2.71567 11.791 2.3737C12.3417 2.03172 12.9741 1.82292 13.6318 1.76592C14.2895 1.70892 14.9521 1.80551 15.5603 2.04705C16.1685 2.2886 16.7034 2.66759 17.1173 3.15017C17.5312 3.63276 17.8112 4.20393 17.9322 4.81267C18.0533 5.42142 18.0117 6.0488 17.8111 6.63879C17.6105 7.22877 17.2572 7.76301 16.7827 8.19379C16.6473 8.31629 16.5433 8.44379 16.4807 8.58066L15.9727 9.68627C15.9469 9.74231 15.9042 9.79004 15.8498 9.82358C15.7954 9.85712 15.7318 9.87501 15.6667 9.87502H12.3333C12.2681 9.87513 12.2043 9.8573 12.1498 9.82376C12.0953 9.79021 12.0525 9.74241 12.0267 9.68627L11.5193 8.58004C11.4467 8.43395 11.3441 8.3027 11.2173 8.19379C10.8318 7.84453 10.5252 7.42598 10.3161 6.96315C10.1069 6.50033 9.99941 6.00272 10 5.50007V5.50007ZM12 10.8125C12 10.7296 12.0351 10.6501 12.0976 10.5915C12.1601 10.5329 12.2449 10.5 12.3333 10.5H15.6667C15.7551 10.5 15.8399 10.5329 15.9024 10.5915C15.9649 10.6501 16 10.7296 16 10.8125C16 10.8954 15.9649 10.9749 15.9024 11.0335C15.8399 11.0921 15.7551 11.125 15.6667 11.125L15.5173 11.4044C15.462 11.5082 15.3769 11.5955 15.2717 11.6565C15.1664 11.7176 15.0451 11.7499 14.9213 11.75H13.0787C12.9549 11.7499 12.8336 11.7176 12.7283 11.6565C12.6231 11.5955 12.538 11.5082 12.4827 11.4044L12.3333 11.125C12.2449 11.125 12.1601 11.0921 12.0976 11.0335C12.0351 10.9749 12 10.8954 12 10.8125Z" stroke="#EDF2F6" stroke-width="0.8" mask="url(#path-2-outside-1_58_31)"/>
      </symbol>
      <symbol id="icon-people" viewBox="0 0 18 20" fill="none" >
            <path d="M9 10C11.8406 10 14.1429 7.76172 14.1429 5C14.1429 2.23828 11.8406 0 9 0C6.15938 0 3.85714 2.23828 3.85714 5C3.85714 7.76172 6.15938 10 9 10ZM12.6 11.25H11.929C11.0371 11.6484 10.0446 11.875 9 11.875C7.95536 11.875 6.96696 11.6484 6.07098 11.25H5.4C2.41875 11.25 0 13.6016 0 16.5V18.125C0 19.1602 0.863839 20 1.92857 20H16.0714C17.1362 20 18 19.1602 18 18.125V16.5C18 13.6016 15.5813 11.25 12.6 11.25Z" fill="#010F30"/>
      </symbol>
      <symbol id="icon-chart" viewBox="0 0 32 32" fill="none" >
            <path d="M20.9831 23.0851C21.5688 23.6709 21.5739 24.6293 20.9196 25.1375C19.7639 26.0352 18.4502 26.7166 17.0417 27.1439C15.1533 27.7167 13.1527 27.815 11.2171 27.43C9.28158 27.045 7.47086 26.1886 5.94536 24.9367C4.41986 23.6847 3.22666 22.0759 2.47145 20.2526C1.71624 18.4294 1.42234 16.4481 1.61577 14.4841C1.8092 12.5201 2.484 10.6342 3.58039 8.99334C4.67679 7.35247 6.16093 6.00732 7.90136 5.07704C9.19941 4.38322 10.6101 3.93614 12.0621 3.75369C12.8841 3.65041 13.5583 4.33164 13.5583 5.16006V15.039C13.5583 15.4368 13.7163 15.8184 13.9976 16.0997L20.9831 23.0851Z" fill="#010F30"/>
            <path d="M14.9536 3.54362C14.9536 2.99134 15.4021 2.5393 15.9525 2.58527C17.1862 2.68831 18.3985 2.98181 19.5459 3.45709C21.0019 4.06016 22.3248 4.94409 23.4391 6.05842C24.5534 7.17275 25.4374 8.49565 26.0404 9.95159C26.5157 11.099 26.8092 12.3114 26.9123 13.545C26.9582 14.0954 26.5062 14.5439 25.9539 14.5439L15.9536 14.5439C15.4014 14.5439 14.9536 14.0962 14.9536 13.5439L14.9536 3.54362Z" fill="#010F30"/>
            <path d="M26.6123 15.9954C26.8885 15.9953 27.1136 16.2192 27.1015 16.495C27.0012 18.7913 26.205 21.0034 24.8189 22.8369C24.6524 23.0571 24.3363 23.0862 24.1235 22.9101L16.8435 16.8845C16.4827 16.5859 16.6937 15.9995 17.1621 15.9994L26.6123 15.9954Z" fill="#010F30"/>
      </symbol>
      <symbol id="icon-bag" viewBox="0 0 22 19" fill="none">
            <path fill-rule="evenodd" clip-rule="evenodd" d="M8.5 3.5C8.5 2.39543 9.39543 1.5 10.5 1.5H11.5C12.6046 1.5 13.5 2.39543 13.5 3.5H8.5ZM7.5 3.5C7.5 1.84315 8.84315 0.5 10.5 0.5H11.5C13.1569 0.5 14.5 1.84315 14.5 3.5H20C21.1046 3.5 22 4.39543 22 5.5V8L11.6835 11.7515C11.242 11.912 10.758 11.912 10.3165 11.7515L0 8V5.5C0 4.39543 0.895431 3.5 2 3.5H7.5ZM0 9L10.3165 12.7515C10.758 12.912 11.242 12.912 11.6835 12.7515L22 9V16.5C22 17.6046 21.1046 18.5 20 18.5H2C0.89543 18.5 0 17.6046 0 16.5V9Z" fill="#91A4B7"/>
      </symbol>
      <symbol id="icon-stars" viewBox="0 0 22 20" fill="none">
            <path fill-rule="evenodd" clip-rule="evenodd" d="M0 1.5C0 0.671573 0.671573 0 1.5 0H20.5C21.3284 0 22 0.671573 22 1.5V3.5H0V1.5ZM2 1.5C2 1.22386 2.22386 1 2.5 1H9.5C9.77614 1 10 1.22386 10 1.5C10 1.77614 9.77614 2 9.5 2H2.5C2.22386 2 2 1.77614 2 1.5ZM13.5 1C13.2239 1 13 1.22386 13 1.5C13 1.77614 13.2239 2 13.5 2H14.5C14.7761 2 15 1.77614 15 1.5C15 1.22386 14.7761 1 14.5 1H13.5ZM16 1.5C16 1.22386 16.2239 1 16.5 1H17.5C17.7761 1 18 1.22386 18 1.5C18 1.77614 17.7761 2 17.5 2H16.5C16.2239 2 16 1.77614 16 1.5ZM19.5 1C19.2239 1 19 1.22386 19 1.5C19 1.77614 19.2239 2 19.5 2H20.5C20.7761 2 21 1.77614 21 1.5C21 1.22386 20.7761 1 20.5 1H19.5Z" fill="#91A4B7"/>
            <path fill-rule="evenodd" clip-rule="evenodd" d="M0 5H22V18.5C22 19.3284 21.3284 20 20.5 20H1.5C0.671573 20 0 19.3284 0 18.5V5ZM4.30979 14.5854C4.36966 14.4011 4.63034 14.4011 4.69021 14.5854L5.01638 15.5893C5.04316 15.6717 5.11995 15.7275 5.20659 15.7275H6.2621C6.45585 15.7275 6.5364 15.9754 6.37966 16.0893L5.52574 16.7097C5.45564 16.7606 5.42631 16.8509 5.45308 16.9333L5.77925 17.9371C5.83912 18.1214 5.62823 18.2746 5.47148 18.1607L4.61756 17.5403C4.54746 17.4894 4.45254 17.4894 4.38244 17.5403L3.52852 18.1607C3.37177 18.2746 3.16088 18.1214 3.22075 17.9371L3.54692 16.9333C3.57369 16.8509 3.54436 16.7606 3.47426 16.7097L2.62034 16.0893C2.4636 15.9754 2.54415 15.7275 2.7379 15.7275H3.79341C3.88005 15.7275 3.95684 15.6717 3.98362 15.5893L4.30979 14.5854ZM9.69021 14.5854C9.63034 14.4011 9.36966 14.4011 9.30979 14.5854L8.98362 15.5893C8.95684 15.6717 8.88005 15.7275 8.79341 15.7275H7.7379C7.54415 15.7275 7.4636 15.9754 7.62034 16.0893L8.47427 16.7097C8.54436 16.7606 8.57369 16.8509 8.54692 16.9333L8.22075 17.9371C8.16088 18.1214 8.37177 18.2746 8.52852 18.1607L9.38244 17.5403C9.45254 17.4894 9.54746 17.4894 9.61756 17.5403L10.4715 18.1607C10.6282 18.2746 10.8391 18.1214 10.7793 17.9371L10.4531 16.9333C10.4263 16.8509 10.4556 16.7606 10.5257 16.7097L11.3797 16.0893C11.5364 15.9754 11.4558 15.7275 11.2621 15.7275H10.2066C10.1199 15.7275 10.0432 15.6717 10.0164 15.5893L9.69021 14.5854ZM15.3098 14.5854C15.3697 14.4011 15.6303 14.4011 15.6902 14.5854L16.0164 15.5893C16.0432 15.6717 16.1199 15.7275 16.2066 15.7275H17.2621C17.4558 15.7275 17.5364 15.9754 17.3797 16.0893L16.5257 16.7097C16.4556 16.7606 16.4263 16.8509 16.4531 16.9333L16.7793 17.9371C16.8391 18.1214 16.6282 18.2746 16.4715 18.1607L15.6176 17.5403C15.5475 17.4894 15.4525 17.4894 15.3824 17.5403L14.5285 18.1607C14.3718 18.2746 14.1609 18.1214 14.2207 17.9371L14.5469 16.9333C14.5737 16.8509 14.5444 16.7606 14.4743 16.7097L13.6203 16.0893C13.4636 15.9754 13.5442 15.7275 13.7379 15.7275H14.7934C14.8801 15.7275 14.9568 15.6717 14.9836 15.5893L15.3098 14.5854ZM5.43 9.157H4.512L4.62 7.483H7.311V6.7H3.864L3.63 9.967H5.412C5.802 9.967 6.117 10.072 6.357 10.282C6.603 10.492 6.726 10.777 6.726 11.137C6.726 11.497 6.603 11.782 6.357 11.992C6.117 12.196 5.796 12.298 5.394 12.298C5.046 12.298 4.752 12.217 4.512 12.055C4.272 11.893 4.11 11.662 4.026 11.362L3.315 11.767C3.459 12.193 3.717 12.526 4.089 12.766C4.467 13 4.902 13.117 5.394 13.117C5.988 13.117 6.498 12.94 6.924 12.586C7.344 12.238 7.554 11.755 7.554 11.137C7.554 10.525 7.347 10.042 6.933 9.688C6.525 9.334 6.024 9.157 5.43 9.157ZM12.2787 9.472H10.7127V7.915H9.96572V9.472H8.40872V10.219H9.96572V11.785H10.7127V10.219H12.2787V9.472Z" fill="#91A4B7"/>
      </symbol>
</svg>
